<?xml version="1.0" encoding="utf-8"?>
<!-- Generator: Adobe Illustrator 25.3.1, SVG Export Plug-In . SVG Version: 6.00 Build 0)  -->
<svg version="1.1" id="Layer_1" xmlns="http://www.w3.org/2000/svg" xmlns:xlink="http://www.w3.org/1999/xlink" x="0px" y="0px"
	 viewBox="0 0 32 32" style="enable-background:new 0 0 32 32;" xml:space="preserve">
<style type="text/css">
	.st0{fill:#222222;}
</style>
<g id="XMLID_801_">
	<path id="XMLID_802_" class="st0" d="M10.2,11.6H5.5c-0.2,0-0.4,0.2-0.4,0.4v15.1c0,0.2,0.2,0.4,0.4,0.4h4.7c0.2,0,0.4-0.2,0.4-0.4
		V11.9C10.5,11.7,10.4,11.6,10.2,11.6z"/>
	<path id="XMLID_803_" class="st0" d="M7.8,4.1c-1.7,0-3.1,1.4-3.1,3.1c0,1.7,1.4,3.1,3.1,3.1c1.7,0,3.1-1.4,3.1-3.1
		C10.9,5.5,9.5,4.1,7.8,4.1z"/>
	<path id="XMLID_804_" class="st0" d="M22.1,11.2c-1.9,0-3.3,0.8-4.1,1.7v-1c0-0.2-0.2-0.4-0.4-0.4h-4.5c-0.2,0-0.4,0.2-0.4,0.4
		v15.1c0,0.2,0.2,0.4,0.4,0.4h4.7c0.2,0,0.4-0.2,0.4-0.4v-7.5c0-2.5,0.7-3.5,2.4-3.5c1.9,0,2.1,1.6,2.1,3.6v7.3
		c0,0.2,0.2,0.4,0.4,0.4h4.7c0.2,0,0.4-0.2,0.4-0.4v-8.3C28.1,15,27.4,11.2,22.1,11.2z"/>
</g>
</svg>
