<svg xmlns="http://www.w3.org/2000/svg" xmlns:xlink="http://www.w3.org/1999/xlink" viewBox="0 0 32 32" version="1.1" role="img" aria-labelledby="at-svg-slack-3" class="at-icon at-icon-slack" style="fill: rgb(34, 34, 34); width: 32px; height: 32px;"><title id="at-svg-slack-3">Slack</title><g><path d="M9.622 18.902c0 1.272-1.04 2.31-2.31 2.31A2.317 2.317 0 0 1 5 18.903c0-1.272 1.04-2.31 2.31-2.31h2.312v2.31zm1.165 0c0-1.272 1.04-2.31 2.31-2.31 1.273 0 2.312 1.038 2.312 2.31v5.787c0 1.27-1.04 2.31-2.312 2.31a2.317 2.317 0 0 1-2.31-2.31V18.9zm2.31-9.28a2.317 2.317 0 0 1-2.31-2.31c0-1.273 1.04-2.312 2.31-2.312 1.273 0 2.312 1.04 2.312 2.31v2.312h-2.312zm0 1.165c1.273 0 2.312 1.04 2.312 2.31 0 1.273-1.04 2.312-2.312 2.312H7.31A2.317 2.317 0 0 1 5 13.097c0-1.272 1.04-2.31 2.31-2.31H13.1zm9.28 2.31c0-1.27 1.04-2.31 2.312-2.31 1.27 0 2.31 1.04 2.31 2.31 0 1.273-1.04 2.312-2.31 2.312h-2.312v-2.312zm-1.164 0c0 1.273-1.04 2.312-2.31 2.312a2.317 2.317 0 0 1-2.312-2.312V7.31c0-1.27 1.04-2.31 2.312-2.31 1.272 0 2.31 1.04 2.31 2.31V13.1zm-2.31 9.28c1.27 0 2.31 1.04 2.31 2.312 0 1.27-1.04 2.31-2.31 2.31a2.317 2.317 0 0 1-2.312-2.31v-2.312h2.312zm0-1.164a2.317 2.317 0 0 1-2.312-2.31c0-1.273 1.04-2.312 2.312-2.312h5.787c1.27 0 2.31 1.04 2.31 2.312 0 1.272-1.04 2.31-2.31 2.31H18.9z" fill-rule="evenodd"></path></g></svg>
