<?xml version="1.0" encoding="utf-8"?>
<!-- Generator: Adobe Illustrator 26.0.3, SVG Export Plug-In . SVG Version: 6.00 Build 0)  -->
<svg version="1.1" id="Layer_1" xmlns="http://www.w3.org/2000/svg" xmlns:xlink="http://www.w3.org/1999/xlink" x="0px" y="0px"
	 viewBox="0 0 215.6 110" style="enable-background:new 0 0 215.6 110;" xml:space="preserve">
<style type="text/css">
	.st0{fill:#616161;}
	.st1{fill:#F37726;}
</style>
<path class="st0" d="M27,63.4v-3.7l4.8-0.8V25.3L27,24.5v-3.7h12.5l13.7,32.4h0.2l13.3-32.4h12.9v3.7l-4.8,0.8v33.6l4.8,0.8v3.7
	H64.2v-3.7l5-0.8V28.6h-0.1L55.3,61.9h-3.8L37.1,28.7H37l0.2,17.8v12.4l5.2,0.8v3.7H27z M91.3,76.2c-0.6,0-1.2-0.1-1.8-0.2
	c-0.7-0.1-1.3-0.2-1.7-0.3l0.6-4.5c0.5,0.1,0.9,0.1,1.4,0.1c0.6,0,1,0,1.2,0c1.2,0,2.3-0.5,3-1.4c0.9-1.2,1.6-2.5,2.2-3.8l1.4-3.3
	L86.4,35.9L83,35.4v-3.7h13.3v3.7L92.5,36l6.2,15.8l1.5,4.1h0.2l7.3-20l-4-0.6v-3.7h13v3.7l-3.3,0.5l-12.5,32.4
	c-0.5,1.4-1.3,2.8-2.1,4.1c-0.8,1.2-1.8,2.1-3,2.8C94.4,75.9,92.9,76.3,91.3,76.2z M135,64c-2.5,0-5.1-0.4-7.5-1.1
	c-2.5-0.8-4.8-2-6.9-3.5v-9.1h4.5l1,6.7c1.3,0.8,2.7,1.4,4.1,1.8c1.6,0.4,3.2,0.7,4.8,0.6c1.7,0.1,3.4-0.2,5-0.9
	c1.3-0.5,2.3-1.4,3.1-2.5c1.4-2.2,1.5-4.9,0.2-7.2c-0.8-1.1-1.9-2-3.1-2.6c-1.9-0.9-3.8-1.6-5.9-2c-2.6-0.6-5.1-1.5-7.4-2.7
	c-1.9-1-3.4-2.4-4.6-4.2c-1.1-1.7-1.6-3.6-1.6-5.6c0-2.1,0.6-4.2,1.8-6c1.2-1.8,2.9-3.2,4.9-4.2c2.3-1.1,4.8-1.6,7.4-1.5
	c2.7-0.1,5.4,0.4,7.9,1.4c2.1,0.8,4,1.9,5.7,3.3v8.5H144l-1-6.1c-1-0.8-2.1-1.3-3.3-1.8c-1.6-0.5-3.2-0.7-4.9-0.7
	c-1.5,0-3,0.3-4.3,0.9c-1.2,0.5-2.2,1.4-2.9,2.4c-0.7,1.1-1,2.4-1,3.6c0,1.2,0.3,2.3,0.9,3.2c0.8,1.1,1.9,1.9,3.1,2.4
	c1.9,0.8,3.8,1.5,5.8,1.9c4.4,1.2,7.8,2.8,10.1,5c2.3,2.1,3.5,5,3.5,8.1c0,2.2-0.6,4.3-1.9,6.1c-1.3,1.8-3.1,3.3-5.2,4.1
	C140.4,63.6,137.7,64.1,135,64z M165.5,63.4v-3.6l4.8-0.8V25.1h-9.7l-0.8,5.9h-4.3V20.8h35.4V31h-4.3l-0.9-5.9H176v33.8l4.8,0.8v3.7
	L165.5,63.4z"/>
<path class="st1" d="M24,83c-5.5-1.6-9.4-4-11.8-7.4C9.9,72,8.7,67.7,8.8,63.3v-8.7c0-3.2-0.7-5.6-2.2-7.4S3,44.6,0,44.6v-6.2
	c3,0,5.2-0.9,6.6-2.6c1.4-1.7,2.2-4.2,2.2-7.4v-8.7C8.7,15.3,9.9,11,12.3,7.4C14.6,4,18.5,1.6,24,0l1.7,5c-2.8,0.8-5.2,2.7-6.6,5.3
	c-1.4,2.9-2.1,6.2-2,9.4v8.7c0.1,2.7-0.6,5.4-1.8,7.8c-1.2,2.2-3,4.1-5.3,5.2c2.3,1.2,4.2,3,5.4,5.3c1.2,2.4,1.8,5.1,1.8,7.8v8.7
	c-0.1,3.2,0.6,6.5,2,9.4c1.4,2.6,3.7,4.5,6.6,5.3L24,83z"/>
<path class="st1" d="M192,82.5l-1.7-4.9c2.8-0.8,5.1-2.7,6.4-5.2c1.4-2.9,2.1-6,2-9.2v-8.5c-0.1-2.7,0.6-5.4,1.9-7.8
	c1.3-2.3,3.3-4.1,5.8-5.1c-2.4-1-4.5-2.7-5.8-5c-1.3-2.4-1.9-5.1-1.9-7.9v-8.6c0.1-3.2-0.6-6.4-2-9.3c-1.3-2.6-3.7-4.4-6.4-5.2
	l1.7-4.9c5.3,1.5,9.2,3.9,11.5,7.2c2.4,3.6,3.6,7.8,3.4,12.1v8.6c0,3.1,0.7,5.6,2.1,7.3c1.4,1.7,3.6,2.6,6.6,2.6v6.1
	c-3,0-5.2,0.9-6.6,2.6c-1.4,1.7-2.1,4.2-2.1,7.3v8.5c0.1,4.3-1.1,8.5-3.4,12.1C201.2,78.5,197.3,80.9,192,82.5z"/>
<path class="st0" d="M12.5,105.8l-4.2-11H8.2c0.1,0.9,0.1,1.9,0.1,3.1v7.9H7V93.5h2.1l3.9,10.2h0.1l3.9-10.2h2.2v12.4h-1.4v-8
	c0-0.9,0-1.9,0.1-3h-0.1l-4.2,11L12.5,105.8z M28.1,105.8l-0.3-1.3h-0.1c-0.4,0.5-0.8,0.9-1.4,1.2c-0.5,0.2-1.1,0.3-1.7,0.3
	c-0.8,0-1.5-0.2-2.1-0.7c-0.5-0.5-0.8-1.3-0.8-2c0-1.9,1.5-2.9,4.5-3h1.6v-0.6c0-0.6-0.1-1.1-0.5-1.6c-0.4-0.4-0.9-0.6-1.5-0.5
	c-0.9,0-1.8,0.3-2.6,0.7l-0.4-1.1c1-0.5,2-0.8,3.1-0.8c0.9-0.1,1.8,0.2,2.5,0.7c0.6,0.6,0.9,1.5,0.8,2.4v6.3H28.1z M24.9,104.8
	c0.8,0,1.5-0.2,2.1-0.7c0.5-0.5,0.8-1.3,0.8-2v-0.8l-1.4,0.1c-0.8,0-1.7,0.2-2.4,0.5c-0.5,0.3-0.8,0.9-0.7,1.4
	c0,0.4,0.1,0.9,0.5,1.2C24,104.7,24.5,104.9,24.9,104.8L24.9,104.8z M36.3,96.4c0.4,0,0.7,0,1.1,0.1l-0.2,1.3
	c-0.3-0.1-0.7-0.1-1-0.1c-0.8,0-1.5,0.3-1.9,0.9c-0.5,0.6-0.8,1.4-0.8,2.3v5H32v-9.3h1.2l0.2,1.7h0.1c0.3-0.6,0.7-1,1.2-1.4
	C35.1,96.6,35.7,96.4,36.3,96.4L36.3,96.4z M40.5,101.1c0.3-0.5,0.7-0.9,1.1-1.3l3-3.2h1.7l-3.8,3.9l4,5.3h-1.7l-3.3-4.4l-1.1,0.9
	v3.5h-1.4V92.7h1.4v7C40.5,100,40.5,100.5,40.5,101.1L40.5,101.1z M52.1,106c-1.2,0.1-2.4-0.4-3.2-1.2c-0.8-1-1.3-2.2-1.2-3.5
	c-0.1-1.3,0.3-2.5,1.1-3.6c0.7-0.9,1.8-1.4,3-1.3c1,0,2,0.4,2.8,1.1c0.7,0.8,1.1,1.9,1,3v0.9h-6.4c0,0.9,0.3,1.8,0.8,2.5
	c0.6,0.6,1.4,0.9,2.2,0.8c1,0,2.1-0.2,3-0.6v1.2c-0.5,0.2-0.9,0.4-1.4,0.5C53.2,105.9,52.7,106,52.1,106z M51.8,97.6
	c-0.7,0-1.3,0.2-1.8,0.7c-0.5,0.6-0.7,1.3-0.8,2H54c0-0.7-0.2-1.4-0.6-2C53,97.8,52.4,97.5,51.8,97.6L51.8,97.6z M64.2,104.6
	L64.2,104.6c-0.7,1-1.8,1.5-3,1.4c-1.1,0.1-2.1-0.4-2.8-1.2c-0.7-1-1.1-2.3-1-3.6c-0.1-1.3,0.3-2.5,1-3.6c0.7-0.8,1.7-1.3,2.8-1.3
	c1.1-0.1,2.2,0.4,2.9,1.4h0.1v-0.7v-0.7v-3.7h1.4v13.2h-1.2L64.2,104.6z M61.4,104.8c0.8,0.1,1.6-0.2,2.1-0.8
	c0.5-0.7,0.7-1.6,0.6-2.5v-0.3c0.1-1-0.1-2-0.7-2.8c-0.5-0.6-1.3-0.9-2.1-0.8c-0.8,0-1.5,0.4-1.9,1c-0.5,0.8-0.7,1.8-0.7,2.7
	c-0.1,0.9,0.2,1.9,0.7,2.7C60,104.5,60.7,104.9,61.4,104.8L61.4,104.8z M70,105.8h-1.4V92.7H70L70,105.8z M71.5,96.5H73l2,5.3
	c0.3,0.8,0.6,1.7,0.8,2.6h0.1c0.1-0.3,0.2-0.8,0.4-1.5c0.2-0.7,1-2.8,2.3-6.4h1.5l-4,10.5c-0.3,0.8-0.7,1.6-1.4,2.2
	c-0.5,0.4-1.2,0.7-1.9,0.7c-0.4,0-0.8,0-1.3-0.1v-1.1c0.3,0.1,0.7,0.1,1,0.1c1,0,1.8-0.7,2.1-1.6l0.5-1.3L71.5,96.5z M93.4,102.5
	c0,1-0.4,2-1.2,2.6c-0.9,0.6-2.1,0.9-3.2,0.9c-1.2,0.1-2.3-0.1-3.4-0.6V104c0.5,0.2,1.1,0.4,1.7,0.5c0.6,0.1,1.2,0.2,1.8,0.2
	c0.8,0.1,1.5-0.1,2.2-0.6c0.5-0.3,0.8-0.9,0.7-1.5c0-0.4-0.1-0.7-0.3-1c-0.2-0.3-0.5-0.6-0.9-0.8c-0.6-0.3-1.2-0.6-1.8-0.8
	c-0.9-0.3-1.8-0.8-2.5-1.5c-0.5-0.6-0.8-1.4-0.7-2.2c0-0.9,0.4-1.7,1.1-2.3c0.8-0.6,1.8-0.9,2.8-0.8c1.2,0,2.3,0.2,3.4,0.7l-0.5,1.2
	c-0.9-0.4-2-0.6-3-0.6c-0.6,0-1.3,0.1-1.8,0.5c-0.4,0.3-0.7,0.8-0.6,1.4c0,0.4,0.1,0.7,0.2,1.1c0.2,0.3,0.5,0.6,0.8,0.8
	c0.6,0.3,1.1,0.5,1.7,0.7c1,0.3,1.9,0.8,2.7,1.5C93.2,101.1,93.4,101.8,93.4,102.5z M98.7,104.9c0.2,0,0.5,0,0.7,0
	c0.2,0,0.4-0.1,0.6-0.1v1.1c-0.2,0.1-0.4,0.1-0.7,0.2c-0.3,0-0.5,0.1-0.8,0.1c-1.8,0-2.7-1-2.7-2.8v-5.6h-1.3V97l1.3-0.6l0.6-2h0.8
	v2.2h2.7v1.1h-2.7v5.5c0,0.5,0.1,0.9,0.4,1.3C97.9,104.7,98.3,104.9,98.7,104.9z M106,96.4c0.4,0,0.7,0,1.1,0.1l-0.1,1.3
	c-0.3-0.1-0.7-0.1-1-0.1c-0.7,0-1.5,0.3-1.9,0.9c-0.5,0.6-0.8,1.4-0.8,2.3v5h-1.5v-9.3h1.2l0.2,1.7h0.1c0.3-0.6,0.7-1,1.2-1.4
	C104.9,96.6,105.5,96.4,106,96.4z M110.2,96.6v6c0,0.6,0.1,1.2,0.5,1.7c0.4,0.4,1,0.6,1.6,0.6c0.8,0.1,1.6-0.2,2.1-0.8
	c0.5-0.8,0.8-1.7,0.7-2.6v-4.8h1.4v9.3h-1.2l-0.2-1.2h-0.1c-0.3,0.5-0.7,0.8-1.2,1.1c-0.5,0.2-1.1,0.4-1.8,0.4
	c-0.9,0.1-1.8-0.2-2.5-0.8c-0.6-0.7-0.9-1.6-0.8-2.6v-6.1H110.2z M123.2,106c-1.2,0.1-2.3-0.4-3.1-1.2c-0.8-1-1.2-2.2-1.1-3.5
	c-0.1-1.3,0.3-2.6,1.1-3.6c0.8-0.9,2-1.3,3.2-1.3c0.5,0,0.9,0,1.3,0.1c0.3,0.1,0.7,0.2,1,0.3l-0.4,1.2c-0.3-0.1-0.7-0.2-1-0.3
	c-0.3-0.1-0.7-0.1-1-0.1c-1.9,0-2.8,1.2-2.8,3.6c-0.1,0.9,0.2,1.8,0.7,2.6c0.5,0.6,1.2,0.9,2,0.9c0.8,0,1.6-0.2,2.4-0.5v1.2
	C124.7,105.9,124,106,123.2,106L123.2,106z M130.7,104.9c0.2,0,0.5,0,0.7,0c0.2,0,0.4-0.1,0.6-0.1v1.1c-0.2,0.1-0.4,0.1-0.7,0.2
	c-0.3,0-0.5,0.1-0.8,0.1c-1.8,0-2.7-1-2.7-2.8v-5.6h-1.3V97l1.3-0.6l0.6-2h0.8v2.2h2.8v1.1h-2.7v5.5c0,0.5,0.1,0.9,0.4,1.3
	C130,104.7,130.4,104.9,130.7,104.9L130.7,104.9z M135.2,96.6v6c0,0.6,0.1,1.2,0.5,1.7c0.4,0.4,1,0.6,1.6,0.6
	c0.8,0.1,1.6-0.2,2.1-0.8c0.5-0.8,0.7-1.7,0.7-2.6v-4.8h1.4v9.3h-1.1l-0.2-1.2H140c-0.3,0.5-0.7,0.8-1.2,1.1
	c-0.5,0.2-1.1,0.4-1.8,0.4c-0.9,0.1-1.8-0.2-2.5-0.8c-0.6-0.7-0.9-1.6-0.9-2.6v-6.1H135.2z M148.7,96.4c0.4,0,0.7,0,1.1,0.1
	l-0.2,1.3c-0.3-0.1-0.7-0.1-1-0.1c-0.7,0-1.5,0.3-1.9,0.9c-0.5,0.6-0.8,1.4-0.8,2.3v5h-1.4v-9.3h1.2l0.2,1.7h0.1
	c0.3-0.6,0.7-1,1.2-1.4C147.6,96.6,148.2,96.4,148.7,96.4L148.7,96.4z M155.5,106c-1.2,0.1-2.4-0.4-3.2-1.2c-0.8-1-1.3-2.2-1.2-3.5
	c-0.1-1.3,0.3-2.5,1.1-3.6c0.7-0.9,1.8-1.4,3-1.3c1,0,2,0.4,2.8,1.1c0.7,0.8,1.1,1.9,1,3v0.9h-6.4c0,0.9,0.3,1.8,0.8,2.5
	c0.6,0.6,1.4,0.9,2.2,0.8c1,0,2.1-0.2,3-0.6v1.2c-0.5,0.2-0.9,0.4-1.4,0.5C156.6,106,156,106,155.5,106L155.5,106z M155.1,97.6
	c-0.7,0-1.3,0.2-1.8,0.7c-0.5,0.6-0.7,1.3-0.8,2h4.8c0-0.7-0.2-1.4-0.6-2C156.4,97.8,155.8,97.6,155.1,97.6L155.1,97.6z
	 M167.6,104.6L167.6,104.6c-0.7,1-1.8,1.5-3,1.4c-1.1,0.1-2.1-0.4-2.8-1.2c-0.7-1-1.1-2.3-1-3.6c-0.1-1.3,0.3-2.5,1-3.6
	c0.7-0.8,1.7-1.3,2.8-1.3c1.1-0.1,2.2,0.4,2.9,1.4h0.1v-0.7l-0.1-0.7v-3.8h1.5v13.2h-1.1L167.6,104.6z M164.8,104.8
	c0.8,0.1,1.6-0.2,2.1-0.8c0.5-0.7,0.7-1.6,0.6-2.5v-0.3c0.1-1-0.1-2-0.6-2.8c-0.5-0.6-1.3-0.9-2.1-0.8c-0.8,0-1.5,0.4-1.9,1
	c-0.5,0.8-0.7,1.8-0.6,2.7c-0.1,0.9,0.2,1.9,0.6,2.7C163.3,104.6,164,104.9,164.8,104.8L164.8,104.8z M180.4,105.8H179V94.8h-3.9
	v-1.3h9.3v1.3h-3.9L180.4,105.8z M189.9,106c-1.2,0.1-2.4-0.4-3.2-1.2c-0.8-1-1.3-2.2-1.2-3.5c-0.1-1.3,0.3-2.5,1.1-3.6
	c0.7-0.9,1.8-1.4,3-1.3c1,0,2,0.4,2.8,1.1c0.7,0.8,1,1.9,1,3v0.9H187c0,0.9,0.3,1.8,0.8,2.5c0.6,0.6,1.4,0.9,2.2,0.8
	c1,0,2.1-0.2,3-0.6v1.2c-0.5,0.2-0.9,0.4-1.4,0.5C191.1,106,190.5,106,189.9,106L189.9,106z M189.5,97.6c-0.7,0-1.3,0.2-1.8,0.7
	c-0.5,0.6-0.7,1.3-0.8,2h4.8c0-0.7-0.2-1.4-0.6-2C190.8,97.8,190.2,97.6,189.5,97.6L189.5,97.6z M197.9,101.1l-3.2-4.5h1.6l2.4,3.5
	l2.4-3.5h1.6l-3.2,4.5l3.4,4.8h-1.6l-2.6-3.8l-2.6,3.8h-1.6L197.9,101.1z M207.8,104.8c0.2,0,0.5,0,0.7,0c0.2,0,0.4-0.1,0.6-0.1v1.1
	c-0.2,0.1-0.4,0.1-0.7,0.2c-0.3,0-0.5,0.1-0.8,0.1c-1.8,0-2.7-1-2.7-2.8v-5.5h-1.3V97l1.3-0.6l0.6-2h0.8v2.2h2.7v1.1h-2.7v5.5
	c0,0.5,0.1,0.9,0.4,1.3C207,104.7,207.4,104.9,207.8,104.8L207.8,104.8z"/>
</svg>
