<?xml version="1.0" encoding="utf-8"?>
<!-- Generator: Adobe Illustrator 26.0.3, SVG Export Plug-In . SVG Version: 6.00 Build 0)  -->
<svg version="1.1" id="Layer_1" xmlns="http://www.w3.org/2000/svg" xmlns:xlink="http://www.w3.org/1999/xlink" x="0px" y="0px"
	 viewBox="0 0 489 98" style="enable-background:new 0 0 489 98;" xml:space="preserve">
<style type="text/css">
	.st0{fill:#F37726;}
	.st1{fill:#616161;}
</style>
<path class="st0" d="M463.7,89.6l-1.6-4.7c2.9-1,5-2.6,6.2-5c1.3-2.4,1.9-5.3,1.9-8.8v-8.2c0-2.9,0.6-5.4,1.8-7.5
	c1.2-2.1,3.1-3.8,5.6-4.9c-2.5-1.1-4.4-2.7-5.6-4.8c-1.2-2.1-1.8-4.7-1.8-7.6v-8.2c0-3.5-0.6-6.5-1.9-8.9c-1.3-2.4-3.3-4.1-6.2-5
	l1.6-4.7c5.2,1.5,8.9,3.8,11,7c2.2,3.2,3.3,7,3.3,11.6v8.2c0,3,0.7,5.4,2,7c1.4,1.6,3.5,2.4,6.3,2.4v5.9c-2.9,0-5,0.8-6.3,2.5
	c-1.4,1.7-2,4-2,7V71c0,4.5-1.1,8.4-3.3,11.6C472.5,85.8,468.9,88.1,463.7,89.6z"/>
<path class="st1" d="M329.4,69.6c-3.7,0-6.6-1.4-8.4-4.3l-0.5,3.7h-4.6V31.3l-4.4-0.8v-3.4h9.7v16.3c0.9-1.3,2-2.3,3.4-3
	c1.4-0.7,2.9-1,4.8-1c2.4,0,4.4,0.7,6.1,2c1.7,1.3,3,3.1,3.9,5.5c0.9,2.3,1.4,5.1,1.4,8.2v0.6c0,2.8-0.5,5.2-1.4,7.3
	c-0.9,2.1-2.2,3.7-3.9,4.9C333.8,69,331.8,69.6,329.4,69.6z M328.1,65.3c2.5,0,4.3-0.9,5.5-2.7c1.2-1.8,1.8-4.1,1.8-7V55
	c0-3.3-0.6-6.1-1.8-8.2c-1.2-2.1-3.1-3.1-5.6-3.1c-1.6,0-3,0.4-4.1,1.2c-1.1,0.8-2,1.8-2.7,3.2v12.8c0.7,1.3,1.6,2.4,2.7,3.2
	C325.1,64.9,326.5,65.3,328.1,65.3z M359,69.6c-2.7,0-5-0.6-7-1.9c-1.9-1.3-3.4-3-4.5-5.2c-1.1-2.2-1.6-4.8-1.6-7.7v-0.6
	c0-2.9,0.5-5.4,1.6-7.6c1.1-2.2,2.6-4,4.5-5.3c2-1.3,4.3-1.9,6.9-1.9c2.7,0,5,0.6,6.9,1.9c2,1.3,3.5,3,4.5,5.2
	c1.1,2.2,1.6,4.8,1.6,7.7v0.6c0,2.9-0.5,5.4-1.6,7.7c-1.1,2.2-2.6,4-4.5,5.2C363.9,68.9,361.6,69.6,359,69.6z M359,65.4
	c2.5,0,4.4-1,5.7-3s2-4.5,2-7.6v-0.6c0-2-0.3-3.9-0.9-5.5c-0.6-1.6-1.4-2.9-2.6-3.8c-1.1-0.9-2.6-1.4-4.3-1.4
	c-1.7,0-3.1,0.5-4.2,1.4c-1.1,0.9-2,2.2-2.6,3.8c-0.6,1.6-0.9,3.4-0.9,5.5v0.6c0,3.1,0.6,5.6,1.9,7.6
	C354.5,64.4,356.4,65.4,359,65.4z M390.1,69.6c-2.7,0-5-0.6-7-1.9c-1.9-1.3-3.4-3-4.5-5.2c-1.1-2.2-1.6-4.8-1.6-7.7v-0.6
	c0-2.9,0.5-5.4,1.6-7.6c1.1-2.2,2.6-4,4.5-5.3c2-1.3,4.3-1.9,6.9-1.9c2.7,0,5,0.6,6.9,1.9c2,1.3,3.5,3,4.5,5.2
	c1.1,2.2,1.6,4.8,1.6,7.7v0.6c0,2.9-0.5,5.4-1.6,7.7c-1.1,2.2-2.6,4-4.5,5.2C395.1,68.9,392.8,69.6,390.1,69.6z M390.1,65.4
	c2.5,0,4.4-1,5.7-3c1.3-2,2-4.5,2-7.6v-0.6c0-2-0.3-3.9-0.9-5.5c-0.6-1.6-1.4-2.9-2.6-3.8c-1.1-0.9-2.6-1.4-4.3-1.4
	c-1.7,0-3.1,0.5-4.2,1.4c-1.1,0.9-2,2.2-2.6,3.8c-0.6,1.6-0.9,3.4-0.9,5.5v0.6c0,3.1,0.6,5.6,1.9,7.6
	C385.6,64.4,387.6,65.4,390.1,65.4z M406.4,69v-3.4l4.4-0.8V31.3l-4.4-0.8v-3.4h9.7v27l10.3-10.2l0.1-0.2l-3.1-0.3v-3.4h12.5v3.4
	l-3.7,0.7l-8.2,8.2L434,65l4.2,0.6V69H425v-3.4l3-0.3l-0.1-0.1l-7.4-9.5l-4.5,4.5v4.6l4.4,0.8V69H406.4z M453,69.6
	c-2,0-3.8-0.2-5.5-0.6c-1.7-0.4-3.5-1-5.4-1.8l-0.1-6.9h4l1,4.2c1.9,0.8,3.9,1.2,6,1.2c2.1,0,3.7-0.4,4.6-1.2
	c0.9-0.8,1.4-1.8,1.4-3.1c0-1.1-0.5-2.1-1.4-2.9c-0.9-0.8-2.6-1.5-5.1-2c-3.5-0.8-6.1-1.9-7.8-3.2c-1.6-1.4-2.5-3.2-2.5-5.4
	c0-1.6,0.5-3,1.4-4.2c0.9-1.3,2.2-2.2,3.8-3c1.6-0.7,3.5-1.1,5.7-1.1c2.2,0,4.1,0.3,5.6,0.8c1.6,0.5,2.9,1.2,4.1,2l0.3,6.6h-4
	l-0.9-3.9c-0.6-0.5-1.4-0.8-2.2-1.1c-0.9-0.3-1.8-0.4-3-0.4c-1.6,0-3,0.4-4,1.2c-1,0.8-1.5,1.7-1.5,2.9c0,0.7,0.1,1.3,0.4,1.8
	c0.3,0.5,0.9,1,1.7,1.4c0.8,0.4,2.1,0.8,3.7,1.2c4,0.9,6.9,2.2,8.5,3.6c1.6,1.5,2.4,3.3,2.4,5.4c0,2.5-0.9,4.5-2.7,6.2
	C459.8,68.7,456.9,69.6,453,69.6z"/>
<path class="st0" d="M312.3,89.6c-5.2-1.5-8.9-3.8-11.1-7c-2.2-3.2-3.3-7.1-3.3-11.6v-8.2c0-3-0.7-5.3-2-7c-1.4-1.7-3.5-2.5-6.3-2.5
	v-5.9c2.8,0,4.9-0.8,6.3-2.4c1.4-1.7,2-4,2-7v-8.2c0-4.6,1.1-8.4,3.3-11.6c2.2-3.2,5.9-5.5,11.1-7l1.6,4.7c-2.9,0.9-5,2.6-6.3,5
	c-1.2,2.4-1.8,5.4-1.8,8.9v8.2c0,2.8-0.6,5.3-1.7,7.4c-1.1,2.1-2.8,3.8-5.1,5c2.3,1.2,4,2.9,5.1,5.1c1.1,2.1,1.7,4.6,1.7,7.3V71
	c0,3.5,0.6,6.5,1.8,8.8c1.3,2.4,3.4,4.1,6.3,5L312.3,89.6z"/>
<path class="st1" d="M21.2,68.6c-2.7,0-5-0.6-7-1.8c-2-1.2-3.5-2.9-4.6-5.1C8.5,59.4,8,56.9,8,54v-1.2c0-2.8,0.6-5.2,1.7-7.4
	c1.1-2.2,2.7-3.9,4.5-5.2c1.9-1.3,4-1.9,6.2-1.9c2.6,0,4.8,0.5,6.6,1.6c1.8,1.1,3.1,2.6,4,4.5c0.9,1.9,1.3,4.2,1.3,6.8v3.3H13.5
	l-0.1,0.1c0,1.9,0.4,3.5,1,5c0.6,1.4,1.5,2.6,2.7,3.4c1.2,0.8,2.6,1.2,4.2,1.2c1.8,0,3.4-0.3,4.7-0.8c1.4-0.5,2.5-1.2,3.5-2.1
	l2.1,3.4c-1,1-2.4,1.9-4.1,2.6C25.7,68.2,23.6,68.6,21.2,68.6z M13.6,50.6H27v-0.7c0-1.4-0.3-2.6-0.8-3.7c-0.5-1.1-1.2-2-2.2-2.6
	c-1-0.6-2.2-1-3.7-1c-1.2,0-2.3,0.3-3.2,1c-1,0.7-1.8,1.6-2.4,2.8c-0.6,1.2-1,2.5-1.2,4L13.6,50.6z M35.6,68v-3.4l3.2-0.6l8.7-10.7
	L39,43l-2.9-0.6v-3.4h11.4v3.4l-2.9,0.3l6,7.4l5.8-7.4l-3.1-0.3v-3.4h11.2v3.4l-3,0.6l-7.9,10.3L62.7,64l3,0.6V68H53.4v-3.4l3.5-0.3
	l-6.4-7.8l-6.2,7.8l3.1,0.3V68H35.6z M81.5,68.6c-2.7,0-5-0.6-7-1.8c-2-1.2-3.5-2.9-4.6-5.1c-1.1-2.2-1.6-4.7-1.6-7.6v-1.2
	c0-2.8,0.6-5.2,1.7-7.4c1.1-2.2,2.7-3.9,4.5-5.2c1.9-1.3,4-1.9,6.2-1.9c2.6,0,4.8,0.5,6.6,1.6c1.8,1.1,3.1,2.6,4,4.5
	c0.9,1.9,1.3,4.2,1.3,6.8v3.3H73.7l-0.1,0.1c0,1.9,0.4,3.5,1,5c0.6,1.4,1.5,2.6,2.7,3.4c1.2,0.8,2.6,1.2,4.2,1.2
	c1.8,0,3.4-0.3,4.7-0.8c1.4-0.5,2.5-1.2,3.5-2.1l2.1,3.4c-1,1-2.4,1.9-4.1,2.6C85.9,68.2,83.9,68.6,81.5,68.6z M73.9,50.6h13.4v-0.7
	c0-1.4-0.3-2.6-0.8-3.7c-0.5-1.1-1.2-2-2.2-2.6c-1-0.6-2.2-1-3.7-1c-1.2,0-2.3,0.3-3.2,1c-1,0.7-1.8,1.6-2.4,2.8
	c-0.6,1.2-1,2.5-1.2,4L73.9,50.6z M110.9,68.6c-2.6,0-4.9-0.6-6.9-1.8c-2-1.2-3.5-2.9-4.5-5.1c-1.1-2.2-1.6-4.7-1.6-7.6v-1.1
	c0-2.8,0.5-5.2,1.6-7.4c1-2.2,2.5-3.9,4.5-5.2c2-1.3,4.3-1.9,7-1.9c2.3,0,4.4,0.4,6.1,1.2c1.8,0.8,3.3,1.8,4.5,3.2l0.1,7h-4.1
	l-0.9-5.1c-0.6-0.6-1.4-1.1-2.3-1.5c-0.9-0.4-2-0.6-3.2-0.6c-1.6,0-3,0.5-4.2,1.4c-1.2,0.9-2.1,2.2-2.8,3.7c-0.7,1.6-1,3.3-1,5.2V54
	c0,2.1,0.3,3.9,0.9,5.5c0.6,1.6,1.5,2.8,2.7,3.6c1.2,0.8,2.5,1.3,4.1,1.3c1.8,0,3.3-0.5,4.5-1.5c1.2-1,1.9-2.3,2.2-4.1h4.8l0.1,0.2
	c-0.1,1.7-0.6,3.2-1.5,4.7s-2.2,2.6-3.8,3.5C115.4,68.1,113.3,68.6,110.9,68.6z M139.3,68.6c-3.2,0-5.6-1-7.4-3
	c-1.8-2-2.7-5.2-2.7-9.5v-13l-3.3-0.8v-3.4h3.3h5.3v17.2c0,3.1,0.5,5.2,1.4,6.4c0.9,1.2,2.3,1.7,4.3,1.7c1.9,0,3.4-0.4,4.6-1.1
	c1.2-0.8,2.2-1.9,2.8-3.2V43.1l-3.9-0.8v-3.4h3.9h5.3v24.9l3.3,0.8V68h-8.1l-0.3-4.3c-0.9,1.6-2.1,2.8-3.5,3.6
	C142.8,68.1,141.1,68.6,139.3,68.6z M170.2,68.5c-2.1,0-3.9-0.6-5.1-1.9c-1.3-1.3-1.9-3.3-1.9-6.1V42.9h-4.6v-3.9h4.6v-7h5.3v7h6.3
	v3.9h-6.3v17.6c0,1.4,0.3,2.4,0.8,3.1c0.6,0.7,1.3,1,2.2,1c0.6,0,1.3-0.1,2.1-0.2c0.8-0.1,1.4-0.2,1.8-0.3l0.7,3.5
	c-0.8,0.2-1.7,0.4-2.8,0.6C172.2,68.4,171.2,68.5,170.2,68.5z M188.9,68.6c-3,0-5.3-0.7-6.9-2.2c-1.6-1.5-2.4-3.6-2.4-6.3
	c0-1.8,0.5-3.4,1.5-4.8c1-1.4,2.5-2.4,4.4-3.2c1.9-0.8,4.2-1.2,6.9-1.2h5.2v-2.8c0-1.8-0.5-3.1-1.6-4.1c-1.1-1-2.6-1.5-4.5-1.5
	c-1.2,0-2.3,0.2-3.2,0.5c-0.9,0.3-1.7,0.7-2.4,1.2l-0.6,4.1h-4.1v-6.7c1.3-1.1,2.8-1.9,4.6-2.4c1.7-0.6,3.7-0.8,5.8-0.8
	c3.5,0,6.3,0.8,8.3,2.5c2,1.7,3,4.1,3,7.2v14c0,0.4,0,0.7,0,1.1c0,0.4,0,0.7,0.1,1.1l2.8,0.3V68h-7.6c-0.2-0.8-0.3-1.5-0.4-2.1
	c-0.1-0.6-0.2-1.3-0.2-1.9c-1,1.3-2.3,2.4-3.8,3.3C192.3,68.1,190.7,68.6,188.9,68.6z M189.7,64.1c1.8,0,3.4-0.4,4.8-1.3
	c1.5-0.8,2.5-1.9,3.1-3v-5.3h-5.4c-2.4,0-4.3,0.6-5.5,1.7c-1.2,1.2-1.8,2.5-1.8,3.9c0,1.3,0.4,2.2,1.2,2.9
	C186.9,63.8,188.1,64.1,189.7,64.1z M225.4,68.6c-1.9,0-3.5-0.4-4.9-1.1c-1.4-0.7-2.6-1.8-3.5-3.2l-0.5,3.7h-4.6V30.3l-4.4-0.8v-3.4
	h9.7v16.3c0.9-1.3,2-2.3,3.4-3c1.4-0.7,2.9-1,4.8-1c2.4,0,4.4,0.7,6.1,2c1.7,1.3,3,3.1,3.9,5.5c0.9,2.3,1.4,5.1,1.4,8.2v0.6
	c0,2.8-0.5,5.2-1.4,7.3c-0.9,2.1-2.2,3.7-3.9,4.9C229.8,68,227.7,68.6,225.4,68.6z M224,64.3c2.5,0,4.3-0.9,5.5-2.7
	c1.2-1.8,1.8-4.1,1.8-7V54c0-2.2-0.3-4.2-0.8-5.9c-0.5-1.7-1.4-3-2.4-4c-1.1-1-2.5-1.5-4.2-1.5c-1.6,0-3,0.4-4.1,1.2
	c-1.1,0.8-2,1.8-2.7,3.2v12.8c0.7,1.3,1.6,2.4,2.7,3.2C221,63.9,222.4,64.3,224,64.3z M240.2,68v-3.4l4.4-0.8V30.3l-4.4-0.8v-3.4
	h9.7v37.8l4.4,0.8V68H240.2z M270.7,68.6c-2.7,0-5-0.6-7-1.8c-2-1.2-3.5-2.9-4.6-5.1c-1.1-2.2-1.6-4.7-1.6-7.6v-1.2
	c0-2.8,0.6-5.2,1.7-7.4c1.1-2.2,2.7-3.9,4.5-5.2c1.9-1.3,4-1.9,6.2-1.9c2.6,0,4.8,0.5,6.6,1.6c1.8,1.1,3.1,2.6,4,4.5
	c0.9,1.9,1.3,4.2,1.3,6.8v3.3H263l-0.1,0.1c0,1.9,0.4,3.5,1,5c0.6,1.4,1.5,2.6,2.7,3.4c1.2,0.8,2.6,1.2,4.2,1.2
	c1.8,0,3.4-0.3,4.7-0.8c1.4-0.5,2.5-1.2,3.5-2.1L281,65c-1,1-2.4,1.9-4.1,2.6C275.2,68.2,273.1,68.6,270.7,68.6z M263.1,50.6h13.4
	v-0.7c0-1.4-0.3-2.6-0.8-3.7c-0.5-1.1-1.2-2-2.2-2.6c-1-0.6-2.2-1-3.7-1c-1.2,0-2.3,0.3-3.2,1c-1,0.7-1.8,1.6-2.4,2.8
	c-0.6,1.2-1,2.5-1.2,4L263.1,50.6z"/>
<path class="st1" d="M21.2,68.6c-2.7,0-5-0.6-7-1.8c-2-1.2-3.5-2.9-4.6-5.1C8.5,59.4,8,56.9,8,54v-1.2c0-2.8,0.6-5.2,1.7-7.4
	c1.1-2.2,2.7-3.9,4.5-5.2c1.9-1.3,4-1.9,6.2-1.9c2.6,0,4.8,0.5,6.6,1.6c1.8,1.1,3.1,2.6,4,4.5c0.9,1.9,1.3,4.2,1.3,6.8v3.3H13.5
	l-0.1,0.1c0,1.9,0.4,3.5,1,5c0.6,1.4,1.5,2.6,2.7,3.4c1.2,0.8,2.6,1.2,4.2,1.2c1.8,0,3.4-0.3,4.7-0.8c1.4-0.5,2.5-1.2,3.5-2.1
	l2.1,3.4c-1,1-2.4,1.9-4.1,2.6C25.7,68.2,23.6,68.6,21.2,68.6z M13.6,50.6H27v-0.7c0-1.4-0.3-2.6-0.8-3.7c-0.5-1.1-1.2-2-2.2-2.6
	c-1-0.6-2.2-1-3.7-1c-1.2,0-2.3,0.3-3.2,1c-1,0.7-1.8,1.6-2.4,2.8c-0.6,1.2-1,2.5-1.2,4L13.6,50.6z M35.6,68v-3.4l3.2-0.6l8.7-10.7
	L39,43l-2.9-0.6v-3.4h11.4v3.4l-2.9,0.3l6,7.4l5.8-7.4l-3.1-0.3v-3.4h11.2v3.4l-3,0.6l-7.9,10.3L62.7,64l3,0.6V68H53.4v-3.4l3.5-0.3
	l-6.4-7.8l-6.2,7.8l3.1,0.3V68H35.6z M81.5,68.6c-2.7,0-5-0.6-7-1.8c-2-1.2-3.5-2.9-4.6-5.1c-1.1-2.2-1.6-4.7-1.6-7.6v-1.2
	c0-2.8,0.6-5.2,1.7-7.4c1.1-2.2,2.7-3.9,4.5-5.2c1.9-1.3,4-1.9,6.2-1.9c2.6,0,4.8,0.5,6.6,1.6c1.8,1.1,3.1,2.6,4,4.5
	c0.9,1.9,1.3,4.2,1.3,6.8v3.3H73.7l-0.1,0.1c0,1.9,0.4,3.5,1,5c0.6,1.4,1.5,2.6,2.7,3.4c1.2,0.8,2.6,1.2,4.2,1.2
	c1.8,0,3.4-0.3,4.7-0.8c1.4-0.5,2.5-1.2,3.5-2.1l2.1,3.4c-1,1-2.4,1.9-4.1,2.6C85.9,68.2,83.9,68.6,81.5,68.6z M73.9,50.6h13.4v-0.7
	c0-1.4-0.3-2.6-0.8-3.7c-0.5-1.1-1.2-2-2.2-2.6c-1-0.6-2.2-1-3.7-1c-1.2,0-2.3,0.3-3.2,1c-1,0.7-1.8,1.6-2.4,2.8
	c-0.6,1.2-1,2.5-1.2,4L73.9,50.6z M110.9,68.6c-2.6,0-4.9-0.6-6.9-1.8c-2-1.2-3.5-2.9-4.5-5.1c-1.1-2.2-1.6-4.7-1.6-7.6v-1.1
	c0-2.8,0.5-5.2,1.6-7.4c1-2.2,2.5-3.9,4.5-5.2c2-1.3,4.3-1.9,7-1.9c2.3,0,4.4,0.4,6.1,1.2c1.8,0.8,3.3,1.8,4.5,3.2l0.1,7h-4.1
	l-0.9-5.1c-0.6-0.6-1.4-1.1-2.3-1.5c-0.9-0.4-2-0.6-3.2-0.6c-1.6,0-3,0.5-4.2,1.4c-1.2,0.9-2.1,2.2-2.8,3.7c-0.7,1.6-1,3.3-1,5.2V54
	c0,2.1,0.3,3.9,0.9,5.5c0.6,1.6,1.5,2.8,2.7,3.6c1.2,0.8,2.5,1.3,4.1,1.3c1.8,0,3.3-0.5,4.5-1.5c1.2-1,1.9-2.3,2.2-4.1h4.8l0.1,0.2
	c-0.1,1.7-0.6,3.2-1.5,4.7s-2.2,2.6-3.8,3.5C115.4,68.1,113.3,68.6,110.9,68.6z M139.3,68.6c-3.2,0-5.6-1-7.4-3
	c-1.8-2-2.7-5.2-2.7-9.5v-13l-3.3-0.8v-3.4h3.3h5.3v17.2c0,3.1,0.5,5.2,1.4,6.4c0.9,1.2,2.3,1.7,4.3,1.7c1.9,0,3.4-0.4,4.6-1.1
	c1.2-0.8,2.2-1.9,2.8-3.2V43.1l-3.9-0.8v-3.4h3.9h5.3v24.9l3.3,0.8V68h-8.1l-0.3-4.3c-0.9,1.6-2.1,2.8-3.5,3.6
	C142.8,68.1,141.1,68.6,139.3,68.6z M170.2,68.5c-2.1,0-3.9-0.6-5.1-1.9c-1.3-1.3-1.9-3.3-1.9-6.1V42.9h-4.6v-3.9h4.6v-7h5.3v7h6.3
	v3.9h-6.3v17.6c0,1.4,0.3,2.4,0.8,3.1c0.6,0.7,1.3,1,2.2,1c0.6,0,1.3-0.1,2.1-0.2c0.8-0.1,1.4-0.2,1.8-0.3l0.7,3.5
	c-0.8,0.2-1.7,0.4-2.8,0.6C172.2,68.4,171.2,68.5,170.2,68.5z M188.9,68.6c-3,0-5.3-0.7-6.9-2.2c-1.6-1.5-2.4-3.6-2.4-6.3
	c0-1.8,0.5-3.4,1.5-4.8c1-1.4,2.5-2.4,4.4-3.2c1.9-0.8,4.2-1.2,6.9-1.2h5.2v-2.8c0-1.8-0.5-3.1-1.6-4.1c-1.1-1-2.6-1.5-4.5-1.5
	c-1.2,0-2.3,0.2-3.2,0.5c-0.9,0.3-1.7,0.7-2.4,1.2l-0.6,4.1h-4.1v-6.7c1.3-1.1,2.8-1.9,4.6-2.4c1.7-0.6,3.7-0.8,5.8-0.8
	c3.5,0,6.3,0.8,8.3,2.5c2,1.7,3,4.1,3,7.2v14c0,0.4,0,0.7,0,1.1c0,0.4,0,0.7,0.1,1.1l2.8,0.3V68h-7.6c-0.2-0.8-0.3-1.5-0.4-2.1
	c-0.1-0.6-0.2-1.3-0.2-1.9c-1,1.3-2.3,2.4-3.8,3.3C192.3,68.1,190.7,68.6,188.9,68.6z M189.7,64.1c1.8,0,3.4-0.4,4.8-1.3
	c1.5-0.8,2.5-1.9,3.1-3v-5.3h-5.4c-2.4,0-4.3,0.6-5.5,1.7c-1.2,1.2-1.8,2.5-1.8,3.9c0,1.3,0.4,2.2,1.2,2.9
	C186.9,63.8,188.1,64.1,189.7,64.1z M225.4,68.6c-1.9,0-3.5-0.4-4.9-1.1c-1.4-0.7-2.6-1.8-3.5-3.2l-0.5,3.7h-4.6V30.3l-4.4-0.8v-3.4
	h9.7v16.3c0.9-1.3,2-2.3,3.4-3c1.4-0.7,2.9-1,4.8-1c2.4,0,4.4,0.7,6.1,2c1.7,1.3,3,3.1,3.9,5.5c0.9,2.3,1.4,5.1,1.4,8.2v0.6
	c0,2.8-0.5,5.2-1.4,7.3c-0.9,2.1-2.2,3.7-3.9,4.9C229.8,68,227.7,68.6,225.4,68.6z M224,64.3c2.5,0,4.3-0.9,5.5-2.7
	c1.2-1.8,1.8-4.1,1.8-7V54c0-2.2-0.3-4.2-0.8-5.9c-0.5-1.7-1.4-3-2.4-4c-1.1-1-2.5-1.5-4.2-1.5c-1.6,0-3,0.4-4.1,1.2
	c-1.1,0.8-2,1.8-2.7,3.2v12.8c0.7,1.3,1.6,2.4,2.7,3.2C221,63.9,222.4,64.3,224,64.3z M240.2,68v-3.4l4.4-0.8V30.3l-4.4-0.8v-3.4
	h9.7v37.8l4.4,0.8V68H240.2z M270.7,68.6c-2.7,0-5-0.6-7-1.8c-2-1.2-3.5-2.9-4.6-5.1c-1.1-2.2-1.6-4.7-1.6-7.6v-1.2
	c0-2.8,0.6-5.2,1.7-7.4c1.1-2.2,2.7-3.9,4.5-5.2c1.9-1.3,4-1.9,6.2-1.9c2.6,0,4.8,0.5,6.6,1.6c1.8,1.1,3.1,2.6,4,4.5
	c0.9,1.9,1.3,4.2,1.3,6.8v3.3H263l-0.1,0.1c0,1.9,0.4,3.5,1,5c0.6,1.4,1.5,2.6,2.7,3.4c1.2,0.8,2.6,1.2,4.2,1.2
	c1.8,0,3.4-0.3,4.7-0.8c1.4-0.5,2.5-1.2,3.5-2.1L281,65c-1,1-2.4,1.9-4.1,2.6C275.2,68.2,273.1,68.6,270.7,68.6z M263.1,50.6h13.4
	v-0.7c0-1.4-0.3-2.6-0.8-3.7c-0.5-1.1-1.2-2-2.2-2.6c-1-0.6-2.2-1-3.7-1c-1.2,0-2.3,0.3-3.2,1c-1,0.7-1.8,1.6-2.4,2.8
	c-0.6,1.2-1,2.5-1.2,4L263.1,50.6z"/>
</svg>
